<svg xmlns="http://www.w3.org/2000/svg" width="145" height="80" fill="currentColor" viewBox="0 0 146 80">
    <rect width="130" height="61" x="15" y="18" fill="#D8ECFF" stroke="#1890FF" stroke-dasharray="8 8" rx="8" />
    <rect width="129.986" height="60.8" y="9.52" fill="#1890FF" rx="8" transform="rotate(-4.2 0 9.52)" />
    <path fill="#F3F4F7"
        d="M32.437 17.832c-.241-1.639.895-3.185 2.551-3.206A22.5 22.5 0 1 1 13.03 40.474c-.247-1.638 1.095-3.009 2.751-3.035l4.03-.065c1.657-.027 2.986 1.314 3.407 2.916a12.468 12.468 0 0 0 21.564 4.907 12.47 12.47 0 0 0-8.328-20.487c-1.65-.156-3.188-1.251-3.43-2.89l-.587-3.988Z" />
    <path fill="#F3F4F7"
        d="M15.859 35.359c-1.65-.15-2.886-1.617-2.518-3.233a22.501 22.501 0 0 1 13.294-15.775c1.53-.637 3.185.332 3.613 1.933l1.04 3.894c.427 1.601-.552 3.216-2.004 4.012a12.47 12.47 0 0 0-5.797 6.879c-.539 1.566-1.964 2.804-3.614 2.654l-4.014-.364Z" />
    <path fill="#F3F4F7" fill-rule="evenodd"
        d="M74.681 21.694a5 5 0 1 0 .733 9.973l33.908-2.49a5 5 0 0 0-.732-9.973l-33.909 2.49Zm1.245 16.955a5 5 0 1 0 .733 9.973l11.967-.88a5 5 0 1 0-.732-9.972l-11.968.879Z"
        clip-rule="evenodd" />
</svg>